<?xml version="1.0" standalone="no"?>
<!DOCTYPE svg PUBLIC "-//W3C//DTD SVG 20010904//EN"
 "http://www.w3.org/TR/2001/REC-SVG-20010904/DTD/svg10.dtd">
<svg version="1.0" xmlns="http://www.w3.org/2000/svg"
 width="1920.000000pt" height="1080.000000pt" viewBox="0 0 1920.000000 1080.000000"
 preserveAspectRatio="xMidYMid meet">

<g transform="translate(0.000000,1080.000000) scale(0.100000,-0.100000)"
fill="#000000" stroke="none">
<path d="M12279 6277 c-9 -12 -24 -34 -33 -49 l-18 -28 29 0 c25 0 119 57 110
67 -2 1 -19 9 -38 17 -32 13 -35 13 -50 -7z"/>
<path d="M14471 6261 c-17 -21 -31 -42 -31 -45 0 -3 13 -6 28 -6 21 0 33 7 43
26 l13 26 22 -27 c15 -19 28 -26 48 -23 l27 3 -31 43 c-42 57 -76 58 -119 3z"/>
<path d="M4140 5936 l0 -226 108 0 c59 0 122 4 141 10 192 55 216 319 37 409
-40 20 -67 25 -167 29 l-119 5 0 -227z m246 135 c61 -28 87 -77 82 -151 -7
-99 -60 -140 -183 -140 l-75 0 0 155 0 155 68 0 c44 0 81 -7 108 -19z"/>
<path d="M4630 5935 l0 -225 160 0 160 0 0 35 0 35 -125 0 -125 0 0 60 0 60
110 0 110 0 0 35 0 35 -110 0 -110 0 0 60 0 60 126 0 125 0 -3 33 -3 32 -157
3 -158 3 0 -226z"/>
<path d="M5129 6150 c-89 -26 -124 -104 -80 -176 19 -31 27 -35 156 -82 38
-13 52 -24 60 -46 8 -24 6 -31 -14 -47 -15 -12 -39 -19 -65 -19 -42 0 -118 29
-130 49 -4 6 -11 11 -15 11 -13 0 -34 -57 -26 -70 17 -27 110 -60 168 -60 104
0 167 47 167 126 0 64 -33 96 -132 131 -89 31 -117 57 -99 92 21 38 88 37 183
-4 13 -5 21 0 29 18 17 38 6 54 -52 71 -56 17 -108 19 -150 6z"/>
<path d="M5559 6145 c-53 -17 -115 -73 -137 -124 -47 -111 9 -249 120 -295 70
-30 177 -16 234 29 28 22 28 23 11 49 l-18 27 -31 -23 c-21 -15 -50 -23 -87
-26 -72 -4 -117 19 -149 79 -40 74 -20 149 52 203 41 31 133 29 176 -3 l32
-23 20 20 c28 28 17 49 -37 73 -60 27 -130 32 -186 14z"/>
<path d="M5880 5998 c0 -150 2 -166 23 -203 33 -60 93 -87 183 -83 60 3 77 8
108 32 59 44 66 73 66 256 l0 160 -35 0 -35 0 0 -144 c0 -78 -5 -157 -11 -174
-30 -86 -172 -87 -216 -1 -8 16 -13 74 -13 172 l0 147 -35 0 -35 0 0 -162z"/>
<path d="M6378 6154 c-5 -4 -8 -106 -8 -226 l0 -218 118 0 c139 0 182 10 216
51 46 55 26 147 -37 174 -18 8 -26 14 -19 15 7 0 24 11 37 25 19 18 25 35 25
68 0 48 -23 81 -68 99 -33 13 -254 23 -264 12z m225 -75 c44 -24 48 -49 12
-84 -21 -22 -33 -25 -95 -25 l-70 0 0 60 0 60 66 0 c36 0 75 -5 87 -11z m29
-196 c10 -9 18 -29 18 -44 0 -44 -32 -59 -122 -59 l-78 0 0 60 0 60 82 0 c62
0 86 -4 100 -17z"/>
<path d="M6820 5937 l0 -227 35 0 35 0 0 65 0 65 68 0 67 0 38 -65 c36 -63 39
-65 77 -65 22 0 40 2 40 5 0 3 -20 35 -44 71 l-44 66 38 37 c79 75 61 199 -38
250 -13 7 -79 15 -148 18 l-124 6 0 -226z m263 125 c15 -15 22 -34 22 -62 0
-65 -27 -83 -130 -88 l-85 -5 0 93 0 93 85 -5 c71 -4 90 -8 108 -26z"/>
<path d="M7417 6153 c-4 -7 -119 -265 -178 -401 l-19 -43 41 3 c39 3 43 6 59
48 l18 45 114 3 115 3 21 -51 c20 -48 22 -50 61 -50 l40 0 -74 168 c-136 312
-119 282 -159 282 -19 0 -37 -3 -39 -7z m77 -172 c20 -47 36 -88 36 -93 0 -4
-36 -8 -80 -8 l-79 0 30 70 c16 39 34 82 40 97 5 14 11 24 13 22 2 -2 20 -42
40 -88z"/>
<path d="M8052 6148 c-9 -12 -192 -424 -192 -433 0 -3 17 -5 38 -5 36 0 38 2
57 50 l19 50 114 0 113 0 21 -50 c20 -48 22 -50 60 -50 31 0 39 3 35 14 -3 8
-47 109 -98 225 l-92 211 -32 0 c-18 0 -37 -6 -43 -12z m81 -178 l36 -85 -76
-3 c-41 -2 -77 -1 -80 1 -2 3 13 46 34 95 21 50 41 88 45 84 3 -4 22 -45 41
-92z"/>
<path d="M8525 6151 c-106 -26 -175 -112 -175 -217 0 -70 28 -132 76 -173 70
-57 182 -68 272 -26 l52 24 0 86 0 85 -30 0 -30 0 0 -64 c0 -69 -1 -70 -70
-87 -124 -29 -233 99 -182 214 40 90 143 122 234 73 l47 -25 17 26 c16 26 16
27 -6 45 -26 21 -113 48 -149 47 -14 -1 -39 -4 -56 -8z"/>
<path d="M8983 6146 c-118 -38 -185 -158 -153 -274 14 -53 72 -119 125 -143
99 -45 239 -8 300 79 38 55 47 158 20 213 -54 107 -181 161 -292 125z m167
-86 c45 -32 74 -99 65 -152 -15 -87 -112 -150 -196 -128 -148 40 -161 240 -19
299 39 17 113 7 150 -19z"/>
<path d="M9378 6155 c-5 -5 -8 -107 -8 -227 l0 -218 40 0 40 0 0 65 0 65 64 0
64 0 38 -65 c38 -64 39 -65 81 -65 l44 0 -51 75 -50 74 29 15 c58 30 81 148
42 212 -30 49 -78 65 -210 71 -64 3 -119 2 -123 -2z m231 -76 c37 -13 51 -35
51 -79 0 -67 -38 -90 -146 -90 l-64 0 0 90 0 90 64 0 c34 0 77 -5 95 -11z"/>
<path d="M9972 6148 c-9 -12 -192 -424 -192 -433 0 -3 17 -5 38 -5 36 0 38 2
57 50 l19 50 114 0 113 0 21 -50 c20 -48 22 -50 60 -50 31 0 39 3 35 14 -3 8
-47 109 -98 225 l-92 211 -32 0 c-18 0 -37 -6 -43 -12z m81 -178 l36 -85 -76
-3 c-41 -2 -77 -1 -80 1 -2 3 13 46 34 95 21 50 41 88 45 84 3 -4 22 -45 41
-92z"/>
<path d="M10605 6151 c-146 -38 -216 -186 -150 -318 41 -81 114 -123 215 -123
121 0 218 86 228 204 11 129 -77 229 -210 240 -29 3 -66 2 -83 -3z m134 -81
c142 -72 86 -293 -74 -293 -162 0 -217 228 -71 294 53 24 97 24 145 -1z"/>
<path d="M11285 6151 c-154 -40 -222 -204 -139 -337 70 -114 235 -138 349 -51
20 15 20 16 -3 40 l-24 25 -35 -24 c-46 -31 -123 -33 -171 -4 -101 62 -97 216
8 271 48 26 98 24 155 -7 l49 -25 18 23 c10 13 18 26 18 29 0 3 -21 17 -48 32
-51 28 -130 40 -177 28z"/>
<path d="M11590 5935 l0 -225 35 0 35 0 0 90 0 90 120 0 120 0 0 -90 0 -90 35
0 35 0 0 225 0 225 -35 0 -35 0 0 -100 0 -100 -120 0 -120 0 0 100 0 100 -35
0 -35 0 0 -225z"/>
<path d="M12232 6148 c-9 -12 -192 -424 -192 -433 0 -3 17 -5 38 -5 36 0 38 2
57 50 l19 50 114 0 113 0 21 -50 c20 -48 22 -50 60 -50 31 0 39 3 35 14 -3 8
-47 109 -98 225 l-92 211 -32 0 c-18 0 -37 -6 -43 -12z m81 -178 l36 -85 -76
-3 c-41 -2 -77 -1 -80 1 -2 3 13 46 34 95 21 50 41 88 45 84 3 -4 22 -45 41
-92z"/>
<path d="M12865 6151 c-154 -40 -222 -204 -139 -337 70 -114 235 -138 349 -51
20 15 20 16 -3 40 l-24 25 -35 -24 c-46 -31 -123 -33 -171 -4 -101 62 -97 216
8 271 48 26 98 24 155 -7 l49 -25 18 23 c10 13 18 26 18 29 0 3 -21 17 -48 32
-51 28 -130 40 -177 28z"/>
<path d="M13170 5935 l0 -225 35 0 35 0 0 90 0 90 120 0 120 0 0 -90 0 -90 35
0 35 0 0 225 0 225 -35 0 -35 0 0 -100 0 -100 -120 0 -120 0 0 100 0 100 -35
0 -35 0 0 -225z"/>
<path d="M13677 6154 c-4 -4 -7 -106 -7 -226 l0 -218 40 0 40 0 -2 223 -3 222
-30 3 c-17 2 -34 0 -38 -4z"/>
<path d="M13867 6153 c-4 -3 -7 -105 -7 -225 l0 -218 40 0 39 0 3 156 3 156
115 -156 c113 -153 116 -156 153 -156 l37 0 0 225 0 225 -35 0 -35 0 -2 -162
-3 -162 -115 155 c-63 85 -119 157 -125 161 -13 10 -59 10 -68 1z"/>
<path d="M14370 5935 l0 -225 160 0 160 0 0 35 0 35 -125 0 -125 0 0 60 0 60
110 0 110 0 0 35 0 35 -110 0 -110 0 0 60 0 60 126 0 125 0 -3 33 -3 32 -157
3 -158 3 0 -226z"/>
<path d="M14869 6150 c-89 -26 -124 -104 -80 -176 19 -31 27 -35 156 -82 38
-13 52 -24 60 -46 8 -24 6 -31 -14 -47 -15 -12 -39 -19 -65 -19 -42 0 -118 29
-130 49 -4 6 -11 11 -15 11 -13 0 -34 -57 -26 -70 17 -27 110 -60 168 -60 104
0 167 47 167 126 0 64 -33 96 -132 131 -89 31 -117 57 -99 92 21 38 88 37 183
-4 13 -5 21 0 29 18 17 38 6 54 -52 71 -56 17 -108 19 -150 6z"/>
<path d="M5135 5581 c-69 -17 -126 -64 -160 -130 -27 -55 -18 -158 20 -213 33
-47 119 -98 166 -98 19 0 34 -9 48 -29 23 -32 94 -71 131 -71 31 0 110 39 110
54 0 7 -6 21 -14 31 -12 17 -14 17 -37 2 -31 -22 -81 -22 -109 1 l-23 18 31
13 c46 19 109 92 122 142 46 169 -111 322 -285 280z m143 -88 c114 -84 87
-247 -47 -283 -111 -29 -224 83 -192 191 24 79 85 122 164 116 27 -2 60 -13
75 -24z"/>
<path d="M5510 5432 c0 -147 2 -162 23 -202 31 -59 89 -90 169 -90 72 0 115
17 151 59 39 47 48 95 45 248 l-3 138 -35 0 -35 0 -5 -155 c-5 -161 -12 -190
-51 -211 -32 -17 -104 -14 -133 4 -44 29 -50 53 -54 215 l-4 152 -34 0 -34 0
0 -158z"/>
<path d="M6007 5583 c-4 -3 -7 -105 -7 -225 l0 -218 165 0 165 0 0 35 0 35
-125 0 -125 0 0 60 0 60 111 0 110 0 -3 33 -3 32 -107 3 -108 3 0 59 0 60 120
0 120 0 0 35 0 35 -153 0 c-85 0 -157 -3 -160 -7z"/>
<path d="M6590 5366 l0 -226 108 0 c59 0 122 4 141 10 192 55 216 319 37 409
-40 20 -67 25 -167 29 l-119 5 0 -227z m246 135 c61 -28 87 -77 82 -151 -7
-99 -60 -140 -183 -140 l-75 0 0 155 0 155 68 0 c44 0 81 -7 108 -19z"/>
<path d="M7080 5365 l0 -225 160 0 160 0 0 35 0 35 -125 0 -125 0 0 60 0 60
110 0 110 0 0 35 0 35 -110 0 -110 0 0 60 0 60 126 0 125 0 -3 33 -3 32 -157
3 -158 3 0 -226z"/>
<path d="M7500 5366 l0 -226 35 0 35 0 0 65 0 65 65 0 65 0 28 -46 c47 -80 54
-86 95 -82 l37 3 -46 69 -47 69 31 26 c42 36 55 66 55 129 0 106 -55 141 -233
149 l-120 6 0 -227z m229 143 c37 -13 51 -35 51 -79 0 -67 -38 -90 -146 -90
l-64 0 0 90 0 90 64 0 c34 0 77 -5 95 -11z"/>
<path d="M7960 5366 l0 -226 35 0 35 0 0 65 0 65 65 0 65 0 28 -46 c47 -80 54
-86 95 -82 l37 3 -46 69 -47 69 31 26 c42 36 55 66 55 129 0 106 -55 141 -233
149 l-120 6 0 -227z m229 143 c37 -13 51 -35 51 -79 0 -67 -38 -90 -146 -90
l-64 0 0 90 0 90 64 0 c34 0 77 -5 95 -11z"/>
<path d="M8417 5583 c-4 -3 -7 -105 -7 -225 l0 -218 165 0 165 0 0 35 0 35
-125 0 -125 0 0 60 0 60 111 0 110 0 -3 33 -3 32 -107 3 -108 3 0 59 0 60 120
0 120 0 0 35 0 35 -153 0 c-85 0 -157 -3 -160 -7z"/>
<path d="M8780 5555 l0 -35 70 0 70 0 0 -190 0 -190 35 0 35 0 2 188 3 187 73
3 73 3 -3 32 -3 32 -177 3 -178 2 0 -35z"/>
<path d="M9207 5584 c-4 -4 -7 -106 -7 -226 l0 -218 165 0 165 0 0 35 0 35
-125 0 -125 0 0 60 0 60 105 0 105 0 0 35 0 35 -105 0 -105 0 0 60 0 60 121 0
120 0 -3 33 -3 32 -151 3 c-82 1 -153 -1 -157 -4z"/>
<path d="M9925 5581 c-87 -23 -157 -91 -174 -169 -23 -111 32 -215 139 -260
49 -20 162 -12 218 17 l42 21 0 85 0 85 -30 0 c-29 0 -29 -1 -32 -62 -3 -58
-5 -64 -32 -77 -44 -21 -119 -17 -161 9 -97 60 -98 192 -1 264 41 31 143 30
186 -2 l32 -24 16 24 c25 34 22 41 -29 66 -51 25 -128 35 -174 23z"/>
<path d="M10383 5576 c-118 -38 -185 -158 -153 -274 14 -53 72 -119 125 -143
99 -45 239 -8 300 79 38 55 47 158 20 213 -54 107 -181 161 -292 125z m167
-86 c45 -32 74 -99 65 -152 -15 -87 -112 -150 -196 -128 -148 40 -161 240 -19
299 39 17 113 7 150 -19z"/>
<path d="M10778 5585 c-5 -5 -8 -107 -8 -227 l0 -218 40 0 40 0 0 65 0 65 64
0 64 0 38 -65 c38 -64 39 -65 81 -65 l44 0 -51 75 -50 74 29 15 c58 30 81 148
42 212 -30 49 -78 65 -210 71 -64 3 -119 2 -123 -2z m231 -76 c37 -13 51 -35
51 -79 0 -67 -38 -90 -146 -90 l-64 0 0 90 0 90 64 0 c34 0 77 -5 95 -11z"/>
<path d="M11238 5585 c-5 -5 -8 -107 -8 -227 l0 -218 113 0 c144 0 192 15 246
77 69 78 76 184 17 271 -49 72 -99 93 -243 99 -65 3 -121 2 -125 -2z m259 -91
c95 -70 97 -199 4 -261 -28 -19 -47 -23 -112 -23 l-79 0 0 156 0 156 79 -3
c61 -3 86 -9 108 -25z"/>
<path d="M11720 5428 c0 -150 2 -166 23 -203 33 -60 93 -87 183 -83 60 3 77 8
108 32 59 44 66 73 66 256 l0 160 -35 0 -35 0 0 -144 c0 -78 -5 -157 -11 -174
-30 -86 -172 -87 -216 -1 -8 16 -13 74 -13 172 l0 147 -35 0 -35 0 0 -162z"/>
<path d="M12218 5585 c-5 -5 -8 -107 -8 -227 l0 -218 40 0 40 0 0 65 0 65 63
0 63 0 38 -65 c38 -65 38 -65 83 -65 l44 0 -50 72 -50 72 33 28 c44 36 60 77
54 138 -6 55 -30 90 -82 117 -32 16 -255 31 -268 18z m258 -98 c13 -16 24 -41
24 -57 0 -16 -11 -41 -24 -57 -22 -25 -31 -28 -105 -31 l-81 -4 0 92 0 92 81
-4 c74 -3 83 -6 105 -31z"/>
<path d="M12716 5373 c-53 -120 -96 -221 -96 -225 0 -5 16 -8 36 -8 33 0 36 3
56 50 l21 51 115 -3 114 -3 18 -45 c16 -42 20 -45 59 -48 l42 -3 -14 33 c-55
130 -172 395 -180 406 -5 6 -24 12 -42 12 l-33 0 -96 -217z m179 18 l34 -81
-79 0 c-44 0 -80 3 -80 8 0 4 16 47 37 95 26 63 39 84 45 74 4 -9 24 -52 43
-96z"/>
<path d="M13310 5365 l0 -225 35 0 34 0 3 157 3 158 115 -157 c113 -154 116
-157 153 -157 l37 -1 0 225 0 225 -35 0 -35 0 -2 -160 -3 -161 -120 161 c-112
150 -121 160 -152 160 l-33 0 0 -225z"/>
<path d="M13933 5576 c-118 -38 -185 -158 -153 -274 14 -53 72 -119 125 -143
99 -45 239 -8 300 79 38 55 47 158 20 213 -54 107 -181 161 -292 125z m167
-86 c45 -32 74 -99 65 -152 -15 -87 -112 -150 -196 -128 -148 40 -161 240 -19
299 39 17 113 7 150 -19z"/>
<path d="M8800 5125 c-16 -24 -30 -46 -30 -49 0 -3 12 -6 28 -6 16 0 43 14 65
33 l39 32 -36 17 -35 17 -31 -44z"/>
<path d="M8407 5023 c-4 -3 -7 -105 -7 -225 l0 -218 40 0 40 0 0 90 0 90 100
0 100 0 0 35 0 35 -100 0 -100 0 0 65 0 65 110 0 110 0 0 35 0 35 -143 0 c-79
0 -147 -3 -150 -7z"/>
<path d="M8770 4805 l0 -225 35 0 35 0 0 225 0 225 -35 0 -35 0 0 -225z"/>
<path d="M9105 5021 c-87 -23 -157 -91 -174 -169 -23 -111 32 -215 139 -260
49 -20 162 -12 218 17 l42 21 0 85 0 85 -30 0 c-29 0 -29 -1 -32 -62 -3 -58
-5 -64 -32 -77 -44 -21 -119 -17 -161 9 -97 60 -98 192 -1 264 41 31 143 30
186 -2 l32 -24 16 24 c25 34 22 41 -29 66 -51 25 -128 35 -174 23z"/>
<path d="M9570 5010 c-9 -18 -166 -367 -187 -417 -4 -9 7 -13 35 -13 38 0 40
2 60 50 l21 50 113 0 114 0 19 -50 c19 -48 21 -50 57 -50 21 0 38 3 38 8 0 4
-42 104 -94 222 l-95 215 -35 3 c-27 2 -37 -2 -46 -18z m120 -257 c0 -1 -36
-3 -80 -3 -44 0 -80 2 -80 4 0 2 11 29 25 59 13 31 32 73 40 94 l16 38 40 -94
c21 -52 39 -96 39 -98z"/>
<path d="M9910 4806 l0 -226 108 0 c59 0 122 4 141 10 192 55 216 319 37 409
-40 20 -67 25 -167 29 l-119 5 0 -227z m246 135 c61 -28 87 -77 82 -151 -7
-99 -60 -140 -183 -140 l-75 0 0 155 0 155 68 0 c44 0 81 -7 108 -19z"/>
<path d="M10523 5016 c-118 -38 -185 -158 -153 -274 14 -53 72 -119 125 -143
99 -45 239 -8 300 79 38 55 47 158 20 213 -54 107 -181 161 -292 125z m167
-86 c45 -32 74 -99 65 -152 -15 -87 -112 -150 -196 -128 -148 40 -161 240 -19
299 39 17 113 7 150 -19z"/>
</g>
</svg>
